# xmcd
# 
# Track frame offsets:
#     150
#     23624
#     37189
#     59248
#     77007
#     90761
#     116791
#     132676
#     146670
#     164223
#     182520
#     200544
#     218209
#     232369
# 
# Disc length: 3161
# 
# Revision: 2
# Processed by: cddbd v1.5.2PL0 Copyright (c) Steve Scherf et al.
# Submitted via: fre:ac v1.0.31
# 
DISCID=d80c570e
DTITLE=Jorma Kaukonen - Stars In My Crown
DYEAR=2007
DGENRE=Folk
TTITLE0=Heart Temporary
TTITLE1=Fur Peace Rag
TTITLE2=By the Rivers of Babylon
TTITLE3=Living in the Moment
TTITLE4=Late Breaking News
TTITLE5=Come Back Baby
TTITLE6=Mighty Hard Pleasure
TTITLE7=No Demon
TTITLE8=There's a Table Sitting in Heaven
TTITLE9=When the Man Comes Around
TTITLE10=A Life Well Lived
TTITLE11=Will There Be Any Stars In My Crown?
TTITLE12=Preacher Picked The Guitar
TTITLE13=Will There Be Any Stars In My Crown? (instrumental)
EXTD=
EXTT0=
EXTT1=
EXTT2=
EXTT3=
EXTT4=
EXTT5=
EXTT6=
EXTT7=
EXTT8=
EXTT9=
EXTT10=
EXTT11=
EXTT12=
EXTT13=
PLAYORDER=
